<svg width="29" height="30" viewBox="0 0 29 30" fill="none" xmlns="http://www.w3.org/2000/svg">
<g clip-path="url(#clip0_1716_279)">
<path d="M24.9909 1.5C26.6137 1.5 27.9227 2.8265 28 4.3875V29.5L24.9101 26.8482L23.2133 25.2872L21.3619 23.6562L22.1352 26.2287H5.93181C4.31354 26.2287 3 24.9862 3 23.34V4.39333C3 2.83233 4.31585 1.5035 5.93758 1.5035H24.9828L24.9909 1.5ZM17.9291 8.13017H17.8945L17.6613 8.3635C20.0541 9.0635 21.2118 10.1567 21.2118 10.1567C19.6697 9.37733 18.28 8.98767 16.8903 8.83017C15.8861 8.67267 14.8819 8.7555 14.0335 8.83017H13.8027C13.2602 8.83017 12.1059 9.0635 10.5592 9.68767C10.0202 9.9245 9.71084 10.0797 9.71084 10.0797C9.71084 10.0797 10.8674 8.91067 13.416 8.2865L13.2602 8.129C13.2602 8.129 11.3303 8.05433 9.24683 9.61067C9.24683 9.61067 7.1634 13.2787 7.1634 17.8007C7.1634 17.8007 8.31765 19.8307 11.4838 19.9077C11.4838 19.9077 11.9455 19.2858 12.4129 18.7387C10.6354 18.1927 9.94284 17.1007 9.94284 17.1007C9.94284 17.1007 10.0975 17.1777 10.3295 17.334H10.3988C10.4334 17.334 10.4496 17.3515 10.468 17.369V17.376C10.4865 17.3947 10.5027 17.411 10.5373 17.411C10.9182 17.5697 11.2991 17.726 11.6107 17.8777C12.1486 18.1133 12.84 18.3478 13.6884 18.503C14.7619 18.6605 15.9923 18.7363 17.3936 18.503C18.0861 18.3455 18.7787 18.1915 19.4712 17.8788C19.9214 17.6455 20.4754 17.4122 21.0837 17.019C21.0837 17.019 20.3912 18.111 18.5386 18.657C18.9195 19.2007 19.4562 19.8237 19.4562 19.8237C22.6235 19.7537 23.8539 17.7237 23.9232 17.81C23.9232 13.295 21.8282 9.62 21.8282 9.62C19.941 8.20367 18.175 8.15 17.8633 8.15L17.928 8.12667L17.9291 8.13017ZM18.123 13.2787C18.9345 13.2787 19.5889 13.9787 19.5889 14.8362C19.5889 15.6995 18.931 16.3995 18.123 16.3995C17.3151 16.3995 16.6571 15.6995 16.6571 14.8432C16.6594 13.9798 17.3185 13.2822 18.123 13.2822V13.2787ZM12.8793 13.2787C13.6872 13.2787 14.3406 13.9787 14.3406 14.8362C14.3406 15.6995 13.6826 16.3995 12.8746 16.3995C12.0667 16.3995 11.4087 15.6995 11.4087 14.8432C11.4087 13.9798 12.0667 13.2822 12.8746 13.2822L12.8793 13.2787Z" fill="#F4DEFF"/>
</g>
<defs>
<clipPath id="clip0_1716_279">
<rect width="29" height="29" fill="white" transform="translate(0 0.5)"/>
</clipPath>
</defs>
</svg>
