<svg width="30" height="30" viewBox="0 0 30 30" fill="none" xmlns="http://www.w3.org/2000/svg">
<path d="M9.94444 3C6.10972 3 3 6.10972 3 9.94444V21.0556C3 24.8903 6.10972 28 9.94444 28H21.0556C24.8903 28 28 24.8903 28 21.0556V9.94444C28 6.10972 24.8903 3 21.0556 3H9.94444ZM23.8333 5.77778C24.6 5.77778 25.2222 6.4 25.2222 7.16667C25.2222 7.93333 24.6 8.55556 23.8333 8.55556C23.0667 8.55556 22.4444 7.93333 22.4444 7.16667C22.4444 6.4 23.0667 5.77778 23.8333 5.77778ZM15.5 8.55556C19.3347 8.55556 22.4444 11.6653 22.4444 15.5C22.4444 19.3347 19.3347 22.4444 15.5 22.4444C11.6653 22.4444 8.55556 19.3347 8.55556 15.5C8.55556 11.6653 11.6653 8.55556 15.5 8.55556ZM15.5 11.3333C14.3949 11.3333 13.3351 11.7723 12.5537 12.5537C11.7723 13.3351 11.3333 14.3949 11.3333 15.5C11.3333 16.6051 11.7723 17.6649 12.5537 18.4463C13.3351 19.2277 14.3949 19.6667 15.5 19.6667C16.6051 19.6667 17.6649 19.2277 18.4463 18.4463C19.2277 17.6649 19.6667 16.6051 19.6667 15.5C19.6667 14.3949 19.2277 13.3351 18.4463 12.5537C17.6649 11.7723 16.6051 11.3333 15.5 11.3333Z" fill="#F4DEFF"/>
</svg>
