<svg width="30" height="30" viewBox="0 0 30 30" fill="none" xmlns="http://www.w3.org/2000/svg">
<path d="M25.2222 3H5.77778C4.24306 3 3 4.24306 3 5.77778V25.2222C3 26.7569 4.24306 28 5.77778 28H25.2222C26.7569 28 28 26.7569 28 25.2222V5.77778C28 4.24306 26.7569 3 25.2222 3ZM23.7042 20.6167L21.2944 20.65C21.2944 20.65 20.775 20.7514 20.0944 20.2819C19.1931 19.6625 18.3431 18.0514 17.6806 18.2611C17.0083 18.475 17.0292 19.925 17.0292 19.925C17.0292 19.925 17.0347 20.1806 16.8806 20.3472C16.7139 20.5264 16.3875 20.5083 16.3875 20.5083H15.3083C15.3083 20.5083 12.9278 20.7056 10.8292 18.5181C8.54306 16.1333 6.52361 11.4264 6.52361 11.4264C6.52361 11.4264 6.40556 11.1292 6.53194 10.9778C6.675 10.8097 7.06111 10.8056 7.06111 10.8056L9.64028 10.7931C9.64028 10.7931 9.88333 10.8361 10.0583 10.9639C10.2014 11.0694 10.2833 11.2681 10.2833 11.2681C10.2833 11.2681 10.7 12.325 11.2528 13.2819C12.3306 15.1472 12.8319 15.5556 13.1972 15.3556C13.7306 15.0639 13.5708 12.7194 13.5708 12.7194C13.5708 12.7194 13.5806 11.8681 13.3028 11.4889C13.0861 11.1931 12.6792 11.1056 12.5 11.0833C12.3542 11.0639 12.5917 10.7264 12.9014 10.5736C13.3653 10.3472 14.1861 10.3333 15.1542 10.3431C15.9083 10.3514 16.1264 10.3972 16.4208 10.4694C17.3111 10.6847 17.0083 11.5153 17.0083 13.5083C17.0083 14.1472 16.8931 15.0444 17.3528 15.3403C17.5514 15.4681 18.0347 15.3597 19.2417 13.3042C19.8153 12.3292 20.2444 11.1833 20.2444 11.1833C20.2444 11.1833 20.3389 10.9792 20.4847 10.8917C20.6347 10.8014 20.8361 10.8292 20.8361 10.8292L23.5514 10.8125C23.5514 10.8125 24.3667 10.7139 24.5 11.0847C24.6389 11.4722 24.1958 12.3764 23.0861 13.8556C21.2653 16.2861 21.0625 16.0597 22.575 17.4653C24.0194 18.8083 24.3181 19.4611 24.3681 19.5431C24.9653 20.5375 23.7042 20.6167 23.7042 20.6167Z" fill="#F4DEFF"/>
</svg>
